<svg xmlns="http://www.w3.org/2000/svg" width="149" height="46" fill="none"><g fill="#fff"><path d="M57.76 39v-.92c3.8 0 4.24-.64 4.24-3.08V10.96c0-2.44-.44-3.08-4.24-3.08V7h11c6.44 0 10.76 2.8 10.76 8.92 0 6-4.16 9.24-9.8 9.28-1.72 0-3.04-.28-4.28-.72V35c0 2.44.48 3.08 4.32 3.08V39h-12ZM69.2 23.6c4.44 0 6.8-3.12 6.8-7.6 0-5.08-3.08-7.52-7.2-7.52-1.04 0-1.84.16-2.6.44-.52.2-.76.56-.76 1.08v12.92c1.08.36 2.24.68 3.76.68Z"/><path d="M89.756 39.64c-2.04 0-3.24-1.48-3.24-4.84v-1.16c-1 3.88-3.04 6-5.8 6s-4.28-2.12-4.28-4.68c0-5 5.56-7.24 10.08-9.32v-2.36c0-3.44-1.2-4.68-3.2-4.68-1.64 0-2.88.84-2.88 2.24 0 .96.56 1.4.56 2.28 0 .92-.6 1.6-1.68 1.6-1.24 0-1.88-.96-1.88-2.36 0-2.88 2.68-5.2 6.4-5.2 3.44 0 5.72 1.96 5.72 6.24v12.04c0 2.08.44 2.56 1.12 2.56.84 0 1.48-.76 1.52-3.4h.88c-.08 2.88-.88 5.04-3.32 5.04Zm-10.24-5.48c0 1.72.8 2.92 2.32 2.92 1.72 0 3.52-1.56 4.68-5.4v-4.8c-3.44 1.76-7 3.72-7 7.28Z"/><path d="M90.413 39v-.92c2.32 0 2.64-.52 2.64-3.08V22.2c0-2.6 0-3.08-2.36-2.12l-.36-.88 3.12-1.24 2.04-.84.6.56v3.68h.12c1.08-2.2 2.92-4.2 5-4.2 1.32 0 2 .72 2 1.88 0 1.36-.8 2.16-1.68 2.16-.64 0-.92-.28-1.36-.76-.48-.44-.68-.6-1.12-.6-.92 0-2 1.28-2.96 3.84v11.2c0 2.64.52 3.2 4.08 3.2V39h-9.76Z"/><path d="M113.884 39.64c-2.04 0-3.24-1.48-3.24-4.84v-1.16c-1 3.88-3.04 6-5.8 6s-4.28-2.12-4.28-4.68c0-5 5.56-7.24 10.08-9.32v-2.36c0-3.44-1.2-4.68-3.2-4.68-1.64 0-2.88.84-2.88 2.24 0 .96.56 1.4.56 2.28 0 .92-.6 1.6-1.68 1.6-1.24 0-1.88-.96-1.88-2.36 0-2.88 2.68-5.2 6.4-5.2 3.44 0 5.72 1.96 5.72 6.24v12.04c0 2.08.44 2.56 1.12 2.56.84 0 1.48-.76 1.52-3.4h.88c-.08 2.88-.88 5.04-3.32 5.04Zm-10.24-5.48c0 1.72.8 2.92 2.32 2.92 1.72 0 3.52-1.56 4.68-5.4v-4.8c-3.44 1.76-7 3.72-7 7.28Z"/><path d="M120.138 35c0 2.56.36 3.08 2.72 3.08V39h-8.48v-.92c2.36 0 2.72-.52 2.72-3.08V11.28c0-2.56.04-3-2.32-1.88l-.4-.8 3.12-1.48 2.12-1.04.52.52V35Z"/><path d="M126.656 35c0 2.56.36 3.08 2.72 3.08V39h-8.48v-.92c2.36 0 2.72-.52 2.72-3.08V11.28c0-2.56.04-3-2.32-1.88l-.4-.8 3.12-1.48 2.12-1.04.52.52V35Z"/><path d="M137.865 25.8c0-3.76-.84-7.12-3.36-7.12-2.48 0-3.68 3.16-3.96 7.12h7.32Zm-10.48 2.96c0-6.32 2.64-11.56 7.12-11.56 4.28 0 6.48 4.2 6.48 10.08h-10.52v.44c0 5.36 1.76 9.4 5 9.4 1.8 0 3.92-1.48 4.84-6.6h.92c-.76 6.4-3.4 9.12-6.92 9.12-4.32 0-6.92-4.4-6.92-10.88Z"/><path d="M145.042 35c0 2.56.36 3.08 2.72 3.08V39h-8.48v-.92c2.36 0 2.72-.52 2.72-3.08V11.28c0-2.56.04-3-2.32-1.88l-.4-.8 3.12-1.48 2.12-1.04.52.52V35Z"/><g clip-path="url(#a)"><path d="M44.31 17.403a.29.29 0 0 1-.26.36c-.573.042-1.146.083-1.717.135-1.977.18-3.961.292-5.939.492-1.183.12-2.371.164-3.557.262-1.147.095-2.29.224-3.436.324-2.614.227-5.231.44-7.846.673-1.383.123-2.768.228-4.144.415a39.08 39.08 0 0 1-.957.121c-.005-.1-.012-.198-.019-.298-.001-.034-.005-.067-.006-.102-.004-.051-.01-.105-.012-.156a23.346 23.346 0 0 0-.042-.503c1.37-.3 5.355-.762 6.555-.893 1.492-.163 2.986-.318 4.481-.465 2.055-.203 4.11-.394 6.164-.589 1.58-.15 3.159-.303 4.74-.442 1.718-.15 3.437-.293 5.154-.438a.642.642 0 0 1 .668.469c.06.21.117.422.172.635h.002Zm-.646 11.415a.445.445 0 0 1 .446.57c-.045.156-.093.31-.14.466a.697.697 0 0 1-.66.492c-2.731.024-15.818.123-19.1-.055-1.596-.086-3.192-.17-4.777-.379-.905-.119-1.821-.203-2.711-.432a5.06 5.06 0 0 1-.621-.188c.005-.027.009-.055.012-.083l.022-.165.05-.365.014-.112.034-.276c.003-.038.007-.06.01-.09 1.038.44 4.337.598 5.162.643 2.281.124 4.564.203 6.848.223 2.254.02 4.509 0 6.764-.02 2.209-.018 4.413-.123 6.62-.155a76.46 76.46 0 0 0 2.027-.074Zm-.341-14.402a.226.226 0 0 1-.189.31c-1.545.149-3.092.307-4.639.44-1.924.163-3.845.365-5.764.563-1.712.18-3.423.367-5.133.563-1.615.186-3.23.377-4.841.584-1.745.226-3.489.453-5.216.789-.373.072-.746.155-1.118.236-.044.009-.1.017-.133.045l-.028.022a663.963 663.963 0 0 0-.069-.577h-.001a10.434 10.434 0 0 0-.045-.332c-.012-.097-.008-.07-.019-.138.2-.06.515-.186.709-.243.98-.291 1.986-.451 2.985-.627a115.07 115.07 0 0 1 5.583-.844c1.687-.208 3.371-.479 5.064-.646 1.957-.193 3.9-.496 5.86-.665 1.713-.146 3.423-.363 5.136-.518.235-.021.472-.045.707-.07a.879.879 0 0 1 .899.52c.085.194.17.39.25.588h.002Zm-1.483-2.964a.19.19 0 0 1-.141.286c-2.5.274-13.125 1.543-15.396 1.874-1.4.203-2.795.451-4.193.67-1.25.196-2.49.441-3.723.718-.775.174-1.559.35-2.293.67a1.17 1.17 0 0 0-.142.07h-.002a5.93 5.93 0 0 0-.045-.27c-.027-.158-.054-.316-.084-.475-.015-.093-.034-.186-.051-.279l-.004-.017c.407-.27.87-.408 1.33-.551 1.528-.474 3.088-.805 4.657-1.1 7.174-1.346 13.983-2.133 18.69-2.707.4-.048.79.136 1.009.475.108.167.269.438.387.636Zm.666 20.558a.426.426 0 0 1 .388.607c-.084.18-.172.361-.26.539a.762.762 0 0 1-.694.425c-2.502-.041-14.205-.246-16.16-.39-1.842-.135-7.385-.543-10.068-1.605v-.003l.073-.38c.016-.08.03-.16.043-.24l.033-.188a3.07 3.07 0 0 0 .03-.18l.018-.104c.084.03.245.098.327.126 1.618.54 3.305.684 4.984.858 4.015.415 8.047.539 12.08.599.409.005 7.06-.048 9.205-.064h.001ZM45 23.532a.452.452 0 0 1-.43.455c-1.776.088-3.547.21-5.324.287-2.233.099-4.466.226-6.7.307-2.662.1-5.323.215-8.445.245-1.588.02-3.632.07-5.678 0-.638-.021-1.278-.02-1.912-.126l-.005-.007a24.626 24.626 0 0 0 .03-.96c0-.068-.005-.079 0-.142.179.005.494.04.67.048 1.598.05 3.196-.005 4.794-.04 1.026-.022 2.053-.053 3.08-.098a1272.396 1272.396 0 0 0 15.933-.789c1.173-.065 2.315-.16 3.51-.229a.432.432 0 0 1 .453.407c.015.237.022.46.024.642Zm-.134-3.104a.401.401 0 0 1-.374.444c-.8.052-2.567.164-3.57.231-2.487.162-4.974.315-7.459.486-2.572.18-5.146.291-7.719.451-2.277.143-8.36.407-9.12.407l-.084.003-.002-.16v-.107l-.008-.324c-.004-.16-.009-.318-.016-.475v-.015h.002l.046-.004c.607-.046 1.214-.086 1.822-.13 2.361-.168 4.723-.35 7.086-.504 2.97-.191 5.937-.43 8.91-.615 2.666-.165 5.33-.39 7.993-.592.619-.047 1.241-.068 1.86-.124a.518.518 0 0 1 .561.442c.028.195.052.391.074.588l-.002-.002Zm-.154 6.255a.556.556 0 0 1-.518.478c-.494.028-.99.062-1.485.078-2.92.096-5.836.244-8.757.269-.408.003-4.67.093-6.392.079-2.35-.02-4.699-.02-7.046-.155-1.283-.073-2.563-.14-3.83-.365a3.5 3.5 0 0 1-.317-.08l.022-.256.007-.083c.014-.158.026-.317.036-.475.008-.104.015-.205.02-.309v-.015c.228.045.458.124.69.151a25.26 25.26 0 0 0 2.361.178c2.407.062 4.813.095 7.22.057 2.75-.045 5.499-.087 8.246-.188 2.024-.074 4.05-.124 6.073-.24 1.094-.062 2.188-.08 3.279-.158a.43.43 0 0 1 .461.479c-.02.172-.044.369-.07.553v.002ZM41.02 35.89l-.242.344a1.24 1.24 0 0 1-1.007.518h-.532a194.227 194.227 0 0 1-5.105-.156c-3.317-.14-6.63-.347-9.93-.72-1.787-.204-3.569-.448-5.33-.817-1.123-.234-2.245-.498-3.306-.96a4.035 4.035 0 0 1-.386-.19h-.002l.02-.076c.042-.157.081-.316.12-.474l.078-.324.044-.191c.321.164.678.262 1.035.365 1.456.419 2.939.7 4.438.908 2.394.334 4.798.551 7.21.708 3.01.196 6.02.315 9.038.353.945.012 2.534.017 3.498.02.352 0 .56.4.36.69l-.002.001ZM39.778 8.532a.188.188 0 0 1-.12.307c-1.852.243-10.095 1.366-10.997 1.52-1.48.25-2.96.51-4.436.785-1 .186-1.998.382-2.99.608-1.334.304-2.67.602-3.971 1.035-.239.08-1.41.484-1.756.666-.004-.018-.01-.036-.012-.055l-.045-.198a38.26 38.26 0 0 0-.139-.585l-.033-.128c.103-.105.493-.319.626-.374 1.13-.465 2.27-.904 3.46-1.2 1.097-.272 2.198-.53 3.297-.794a54.02 54.02 0 0 1 2.928-.617c1.008-.186 2.017-.382 3.029-.555 1.089-.186 7.479-1.147 9.53-1.453a1.19 1.19 0 0 1 1.061.382c.194.215.383.432.566.654l.002.002Zm-1.393 30.516c-.073.075-.149.149-.224.223a2.07 2.07 0 0 1-1.53.578l-.13-.005a163.939 163.939 0 0 1-6.435-.423 103.54 103.54 0 0 1-6.315-.733c-1.806-.267-3.603-.585-5.373-1.035-1.28-.325-2.553-.69-3.716-1.345-.051-.03-.105-.059-.154-.09a28.394 28.394 0 0 0 .332-1.073c.201.1.414.183.62.272 1.135.5 2.337.79 3.54 1.07 1.308.305 2.632.519 3.957.713 1.815.267 3.641.457 5.47.62 2.666.238 7.643.45 9.687.53a.41.41 0 0 1 .273.698h-.002Zm-1.449-33.37c.142.12.07.353-.115.375-.984.121-1.962.285-2.943.44-1.4.218-2.793.468-4.188.715-1.421.251-2.836.547-4.251.837a81.21 81.21 0 0 0-4.195.96c-1.746.45-3.49.919-5.146 1.66-.4.179-.807.308-1.105.66l-.015.017-.004-.012a9.865 9.865 0 0 0-.092-.324 14.891 14.891 0 0 0-.086-.295l-.009-.03-.082-.275c.319-.537.907-.773 1.452-1.033.782-.37 1.606-.636 2.424-.915 1.864-.635 3.77-1.125 5.683-1.567 1.074-.25 2.144-.517 3.233-.703 1.178-.202 2.343-.49 3.52-.703 1.381-.251 2.77-.472 4.158-.708.317-.053.646.02.904.217.291.222.578.45.857.686v-.002ZM34.53 42.142c-.08.052-.161.102-.242.152a3.043 3.043 0 0 1-1.893.429c-1.367-.131-2.736-.26-4.099-.447-1.1-.15-2.205-.294-3.303-.468-1.67-.267-3.336-.574-4.98-.975-1.672-.408-3.334-.854-4.91-1.566-.492-.222-.974-.465-1.412-.784.045-.11.088-.222.13-.334l.023-.058.1-.266.05-.13.107-.297c.074.047.151.092.227.136 1.31.758 2.75 1.184 4.205 1.571 1.389.37 2.793.652 4.206.905 1.892.339 3.794.59 5.703.808 1.295.148 2.591.268 3.89.384.514.046 1.318.101 1.997.148.414.027.55.57.201.792ZM33.326 3.206a.151.151 0 0 1-.043.283 206 206 0 0 0-1.878.346c-.708.132-1.418.263-2.123.417-1.447.317-2.896.632-4.337.976-.988.236-1.972.493-2.955.758-1.046.285-2.087.59-3.11.937-1.409.481-2.815.986-4.072 1.82-.187.122-.36.258-.505.425h-.001l-.03-.083a38.89 38.89 0 0 0-.286-.8l-.051-.139a2.33 2.33 0 0 1 .305-.29c.768-.636 1.655-1.074 2.562-1.467a32.712 32.712 0 0 1 3.09-1.155c1.476-.472 2.956-.924 4.46-1.29 1.339-.326 2.675-.667 4.018-.974a105.92 105.92 0 0 1 2.21-.47 2.816 2.816 0 0 1 1.813.232c.305.15.643.32.935.476l-.002-.002Zm-4.443 40.759c.4.058.437.62.05.735-.151.045-.34.097-.54.146a6.644 6.644 0 0 1-2.829.099c-.005 0-.008 0-.014-.002-1.468-.265-2.936-.543-4.385-.9-1.152-.287-2.303-.585-3.431-.959-1.129-.372-2.24-.783-3.309-1.302-.576-.28-1.228-.663-1.725-1.057l.06-.095c.046-.095.09-.183.13-.274l.062-.134.024-.054a18.328 18.328 0 0 0 .225-.506c.893.677 1.924 1.099 2.965 1.5.816.315 1.645.59 2.488.82 1.018.274 2.041.532 3.072.756a75.82 75.82 0 0 0 3.78.724c1.012.165 2.029.304 3.044.454.111.018.221.033.333.049Zm-.901-42.871c.192.049.187.322-.005.367-1.518.355-3.025.746-4.524 1.17a63.212 63.212 0 0 0-4.526 1.457c-1.26.458-2.507.947-3.678 1.607-.645.362-1.293.736-1.751 1.339l-.01-.023-.042-.098a48.363 48.363 0 0 0-.393-.906c.067-.065.048-.047.102-.105.404-.556 1.005-.913 1.595-1.278 1.162-.717 2.413-1.252 3.68-1.747.92-.36 1.855-.677 2.792-.994A62.276 62.276 0 0 1 24.938.748 2.536 2.536 0 0 1 26 .691c.67.105 1.332.24 1.982.403ZM20.611.5c.03-.002.038.04.012.05-.59.215-1.996.748-2.905 1.116-1.02.414-2.008.898-2.958 1.452-.829.486-1.659.989-2.213 1.812-.05-.105-.1-.208-.154-.311a11.545 11.545 0 0 0-.165-.324c-.058-.116-.118-.228-.178-.341.264-.48.703-.84 1.146-1.187l.012-.009a7.33 7.33 0 0 1 2.19-1.185A22.237 22.237 0 0 1 20.61.5Zm-.543 44.808c.116.031.082.203-.036.191a22.264 22.264 0 0 1-8.405-2.676 30.844 30.844 0 0 0 .518-.956h.001c.653.568 1.417.978 2.19 1.372 1.317.672 2.708 1.16 4.11 1.597.538.167 1.08.326 1.622.474v-.002Zm-8.09-41.49h-.761c-.167 0-.228-.217-.084-.302a.164.164 0 0 1 .084-.022h.586c.016.026.03.05.043.076.045.082.088.165.132.248Z"/><path d="M12.393 4.617H9.955c-.159 0-.224-.205-.092-.295a.163.163 0 0 1 .092-.029h2.274c.056.107.11.215.164.324Zm.389.797h-3.92a.161.161 0 0 1-.099-.29.164.164 0 0 1 .1-.033h3.763a7383.733 7383.733 0 0 0 .156.324Zm.364.8H7.887a.162.162 0 1 1 0-.324h5.115c.02.046.043.095.063.143.028.06.053.12.08.18Zm.341.797h-6.47a.162.162 0 1 1 0-.324h6.335c.032.074.063.15.094.226l.041.098Zm.321.799H6.232a.162.162 0 0 1-.001-.323h7.448c.045.106.086.215.129.323Zm.297.798H5.519a.162.162 0 1 1 0-.324h8.467l.072.197c.016.04.031.084.047.127Zm.279.799H4.87a.162.162 0 1 1 0-.324h9.405l.021.059.009.024c.025.081.053.162.08.241Zm.257.798H4.278a.162.162 0 0 1 0-.324H14.54c.035.107.069.215.101.324Zm.241.799H3.739a.162.162 0 0 1-.137-.25.161.161 0 0 1 .136-.074h11.05c.003.01.004.02.008.03l.086.294Zm.221.798H3.247a.162.162 0 1 1 0-.324h11.768c.031.108.06.215.088.324Zm.206.798H2.799a.162.162 0 1 1 0-.323h12.429l.051.21.03.114Zm.186.798H2.393a.161.161 0 0 1-.146-.231.164.164 0 0 1 .147-.092H15.42c.027.106.051.215.075.323Zm.172.8H2.027a.163.163 0 0 1-.148-.228.16.16 0 0 1 .147-.096H15.6c.014.06.026.119.038.179l.029.145Zm.154.797H1.697a.162.162 0 1 1 0-.324h14.064l.006.028c.001.005.001.012.003.017.017.093.036.186.051.28Zm.139.799H1.402a.161.161 0 0 1-.154-.214.163.163 0 0 1 .155-.11h14.502l.018.099.029.17.008.055Zm.124.798H1.142a.161.161 0 0 1-.155-.209.163.163 0 0 1 .156-.115h14.893l.001.014.047.31Zm.11.799H.912a.161.161 0 0 1-.156-.203.163.163 0 0 1 .157-.12H16.15l.043.323Zm.092.798H.718a.162.162 0 0 1 0-.324H16.25c.005.034.009.069.012.103l.01.091c.006.044.01.087.014.13Zm.079.799H.552a.162.162 0 1 1 0-.324h15.784l.029.324Zm.063.797H.416a.163.163 0 0 1-.16-.186.16.16 0 0 1 .16-.137h15.987c.005.055.01.112.013.167l.012.156Zm.05.8H.308a.16.16 0 0 1-.16-.18.163.163 0 0 1 .163-.144h16.148l.002.027c.007.1.012.199.017.297Zm.036.782v.015H.232a.162.162 0 0 1 0-.324h16.27l.012.309Zm.023.814H.181a.162.162 0 1 1 0-.323h16.346l.009.323Zm.006.789v.01H.161A.161.161 0 0 1 0 22.815a.163.163 0 0 1 .162-.16h16.38l.001.315Zm-.003.484c0 .06 0 .121-.002.181v.143H.168a.162.162 0 0 1-.162-.158.161.161 0 0 1 .161-.166H16.54Zm-.016.798a8.694 8.694 0 0 1-.01.324H.204a.162.162 0 1 1 0-.324h16.32Zm-.027.799-.007.15-.008.174H.266a.162.162 0 1 1 0-.324h16.231Zm-.043.798-.002.012v.003a9.096 9.096 0 0 1-.02.309H.356a.16.16 0 0 1-.16-.14.163.163 0 0 1 .16-.184h16.098Zm-.058.799-.007.083-.022.24H.477a.16.16 0 0 1-.16-.134.163.163 0 0 1 .16-.189h15.919Zm-.072.798c-.01.106-.023.215-.033.323H.627a.163.163 0 0 1-.16-.13.161.161 0 0 1 .159-.193h15.698Zm-.086.799-.036.301c-.002.007-.002.016-.003.023H.807a.162.162 0 1 1 0-.324h15.431Zm-.103.797-.022.166a1.157 1.157 0 0 1-.012.082c-.002.026-.007.05-.01.076H1.018a.162.162 0 1 1 0-.324h15.117Zm-.117.8c-.015.108-.032.215-.05.324H1.26a.16.16 0 0 1-.153-.111.163.163 0 0 1 .154-.213h14.756Zm-.132.798c-.006.044-.015.089-.023.135l-.033.188H1.537a.162.162 0 1 1 0-.324h14.35Zm-.147.798c-.02.109-.041.218-.063.324H1.85a.162.162 0 1 1 0-.324h13.889Zm-.163.798-.069.317-.001.007H2.195a.16.16 0 0 1-.147-.094.163.163 0 0 1 .148-.23h13.38Zm-.18.799-.077.324H2.582a.163.163 0 0 1-.145-.09.161.161 0 0 1 .144-.234h12.815Zm-.197.798-.019.075h-.002c-.015.07-.034.14-.053.21l-.01.039H3.006a.16.16 0 0 1-.14-.082.163.163 0 0 1 .141-.242H15.2Zm-.215.799c-.012.05-.027.1-.04.15-.018.058-.033.115-.05.174H3.473a.162.162 0 1 1 0-.324h11.51Zm-.231.798c-.033.108-.065.217-.1.323H3.988a.162.162 0 1 1 0-.324h10.765Zm-.251.799c-.011.04-.024.079-.037.119a7.24 7.24 0 0 1-.069.205H4.552a.162.162 0 1 1 0-.324h9.95Zm-.267.797-.115.324H5.17a.162.162 0 1 1 0-.324h9.065Zm-.29.8a15.965 15.965 0 0 1-.113.3.11.11 0 0 0-.009.023H5.85a.162.162 0 1 1 0-.323h8.096Zm-.309.797c-.042.109-.087.215-.133.324H6.594a.162.162 0 0 1 0-.324h7.042Zm-.332.799a5.832 5.832 0 0 1-.117.27.737.737 0 0 1-.024.054H7.42a.162.162 0 0 1 0-.324h5.885Zm-.352.798-.062.134-.089.19H8.335a.162.162 0 1 1 0-.324h4.617Zm-.379.8c-.051.108-.106.216-.161.323H9.366a.164.164 0 0 1-.096-.031.161.161 0 0 1 .096-.293h3.207Zm-.403.797-.024.048-.03.057a8.87 8.87 0 0 1-.116.219h-1.47a.163.163 0 0 1-.087-.026c-.138-.087-.075-.298.088-.298h1.64Zm-.429.799a6.743 6.743 0 0 1-.114.205c-.101-.055-.061-.205.053-.205h.061Z"/></g></g><defs><clipPath id="a"><path fill="#fff" d="M0 .5h45v45H0z"/></clipPath></defs></svg>
