<svg xmlns="http://www.w3.org/2000/svg" width="920" height="360" viewBox="0 0 920 360" role="img" aria-labelledby="title desc">
  <title id="title">docpull cumulative PyPI download history</title>
  <desc id="desc">Cumulative PyPI downloads from Pepy for docpull between Apr 4, 2026 and Jul 2, 2026.</desc>
  <rect width="920" height="360" rx="16" fill="#ffffff" />
  <text x="70" y="34" font-size="22" font-weight="700" fill="#111827">docpull cumulative PyPI downloads</text>
  <text x="70" y="56" font-size="13" fill="#6b7280">Cumulative downloads, last 90 days · +11,068 in window · 16,402 all time</text>
  <text x="892" y="34" text-anchor="end" font-size="20" font-weight="700" fill="#2563eb">16.4k</text>
  <text x="892" y="55" text-anchor="end" font-size="12" fill="#6b7280">all time</text>
<line x1="70" y1="296.0" x2="892" y2="296.0" stroke="#e5e7eb" stroke-width="1" />
<line x1="70" y1="240.0" x2="892" y2="240.0" stroke="#e5e7eb" stroke-width="1" />
<line x1="70" y1="184.0" x2="892" y2="184.0" stroke="#e5e7eb" stroke-width="1" />
<line x1="70" y1="128.0" x2="892" y2="128.0" stroke="#e5e7eb" stroke-width="1" />
<line x1="70" y1="72.0" x2="892" y2="72.0" stroke="#e5e7eb" stroke-width="1" />
<text x="56" y="300.0" text-anchor="end" font-size="12" fill="#6b7280">0</text>
<text x="56" y="244.0" text-anchor="end" font-size="12" fill="#6b7280">4.8k</text>
<text x="56" y="188.0" text-anchor="end" font-size="12" fill="#6b7280">9.7k</text>
<text x="56" y="132.0" text-anchor="end" font-size="12" fill="#6b7280">14.5k</text>
<text x="56" y="76.0" text-anchor="end" font-size="12" fill="#6b7280">19.4k</text>
  <line x1="70" y1="296" x2="892" y2="296" stroke="#d1d5db" stroke-width="1.5" />
  <polygon points="70.0,296.0 70.0,234.3 79.2,233.7 88.5,233.6 97.7,233.5 106.9,233.1 116.2,232.8 125.4,232.8 134.7,232.8 143.9,232.4 153.1,232.4 162.4,232.1 171.6,231.9 180.8,231.5 190.1,231.4 199.3,231.4 208.5,231.4 217.8,231.1 227.0,230.8 236.2,230.6 245.5,230.6 254.7,227.5 264.0,226.8 273.2,216.5 282.4,211.8 291.7,210.7 300.9,210.4 310.1,210.2 319.4,210.0 328.6,209.3 337.8,208.1 347.1,207.5 356.3,206.8 365.6,206.2 374.8,205.9 384.0,205.1 393.3,204.5 402.5,203.8 411.7,203.4 421.0,203.2 430.2,202.6 439.4,202.5 448.7,202.2 457.9,202.2 467.1,202.1 476.4,202.0 485.6,201.3 494.9,201.1 504.1,201.1 513.3,201.0 522.6,200.9 531.8,200.8 541.0,200.8 550.3,200.5 559.5,200.4 568.7,200.4 578.0,195.3 587.2,193.6 596.4,192.1 605.7,191.1 614.9,190.5 624.2,190.0 633.4,186.0 642.6,184.9 651.9,179.7 661.1,176.1 670.3,168.2 679.6,166.0 688.8,165.0 698.0,164.7 707.3,164.4 716.5,163.3 725.8,161.7 735.0,148.6 744.2,145.6 753.5,138.8 762.7,137.2 771.9,136.8 781.2,136.3 790.4,135.8 799.6,131.9 808.9,131.4 818.1,123.2 827.3,122.5 836.6,122.1 845.8,120.6 855.1,119.5 864.3,111.3 873.5,109.3 882.8,107.2 892.0,106.2 892.0,296.0" fill="#dbeafe" opacity="0.85" />
  <polyline points="70.0,234.3 79.2,233.7 88.5,233.6 97.7,233.5 106.9,233.1 116.2,232.8 125.4,232.8 134.7,232.8 143.9,232.4 153.1,232.4 162.4,232.1 171.6,231.9 180.8,231.5 190.1,231.4 199.3,231.4 208.5,231.4 217.8,231.1 227.0,230.8 236.2,230.6 245.5,230.6 254.7,227.5 264.0,226.8 273.2,216.5 282.4,211.8 291.7,210.7 300.9,210.4 310.1,210.2 319.4,210.0 328.6,209.3 337.8,208.1 347.1,207.5 356.3,206.8 365.6,206.2 374.8,205.9 384.0,205.1 393.3,204.5 402.5,203.8 411.7,203.4 421.0,203.2 430.2,202.6 439.4,202.5 448.7,202.2 457.9,202.2 467.1,202.1 476.4,202.0 485.6,201.3 494.9,201.1 504.1,201.1 513.3,201.0 522.6,200.9 531.8,200.8 541.0,200.8 550.3,200.5 559.5,200.4 568.7,200.4 578.0,195.3 587.2,193.6 596.4,192.1 605.7,191.1 614.9,190.5 624.2,190.0 633.4,186.0 642.6,184.9 651.9,179.7 661.1,176.1 670.3,168.2 679.6,166.0 688.8,165.0 698.0,164.7 707.3,164.4 716.5,163.3 725.8,161.7 735.0,148.6 744.2,145.6 753.5,138.8 762.7,137.2 771.9,136.8 781.2,136.3 790.4,135.8 799.6,131.9 808.9,131.4 818.1,123.2 827.3,122.5 836.6,122.1 845.8,120.6 855.1,119.5 864.3,111.3 873.5,109.3 882.8,107.2 892.0,106.2" fill="none" stroke="#2563eb" stroke-width="3" stroke-linecap="round" stroke-linejoin="round" />
<text x="70.0" y="334" text-anchor="middle" font-size="12" fill="#6b7280">Apr 04</text>
<text x="319.4" y="334" text-anchor="middle" font-size="12" fill="#6b7280">May 01</text>
<text x="605.7" y="334" text-anchor="middle" font-size="12" fill="#6b7280">Jun 01</text>
<text x="882.8" y="334" text-anchor="middle" font-size="12" fill="#6b7280">Jul 01</text>
  <text x="70" y="350" font-size="11" fill="#9ca3af">Source: pepy.tech API</text>
  <text x="892" y="350" text-anchor="end" font-size="11" fill="#9ca3af">Generated 2026-07-03 22:21 UTC</text>
</svg>
