<svg xmlns="http://www.w3.org/2000/svg" width="920" height="360" viewBox="0 0 920 360" role="img" aria-labelledby="title desc">
  <title id="title">docpull cumulative PyPI download history</title>
  <desc id="desc">Cumulative PyPI downloads from Pepy for docpull between Mar 26, 2026 and Jun 23, 2026.</desc>
  <rect width="920" height="360" rx="16" fill="#ffffff" />
  <text x="70" y="34" font-size="22" font-weight="700" fill="#111827">docpull cumulative PyPI downloads</text>
  <text x="70" y="56" font-size="13" fill="#6b7280">Cumulative downloads, last 90 days · +8,980 in window · 14,228 all time</text>
  <text x="892" y="34" text-anchor="end" font-size="20" font-weight="700" fill="#2563eb">14.2k</text>
  <text x="892" y="55" text-anchor="end" font-size="12" fill="#6b7280">all time</text>
<line x1="70" y1="296.0" x2="892" y2="296.0" stroke="#e5e7eb" stroke-width="1" />
<line x1="70" y1="240.0" x2="892" y2="240.0" stroke="#e5e7eb" stroke-width="1" />
<line x1="70" y1="184.0" x2="892" y2="184.0" stroke="#e5e7eb" stroke-width="1" />
<line x1="70" y1="128.0" x2="892" y2="128.0" stroke="#e5e7eb" stroke-width="1" />
<line x1="70" y1="72.0" x2="892" y2="72.0" stroke="#e5e7eb" stroke-width="1" />
<text x="56" y="300.0" text-anchor="end" font-size="12" fill="#6b7280">0</text>
<text x="56" y="244.0" text-anchor="end" font-size="12" fill="#6b7280">4.2k</text>
<text x="56" y="188.0" text-anchor="end" font-size="12" fill="#6b7280">8.4k</text>
<text x="56" y="132.0" text-anchor="end" font-size="12" fill="#6b7280">12.6k</text>
<text x="56" y="76.0" text-anchor="end" font-size="12" fill="#6b7280">16.8k</text>
  <line x1="70" y1="296" x2="892" y2="296" stroke="#d1d5db" stroke-width="1.5" />
  <polygon points="70.0,296.0 70.0,226.0 79.2,225.5 88.5,225.3 97.7,225.3 106.9,225.1 116.2,225.1 125.4,224.9 134.7,224.9 143.9,224.8 153.1,224.8 162.4,224.2 171.6,224.1 180.8,223.9 190.1,223.5 199.3,223.2 208.5,223.1 217.8,223.1 227.0,222.7 236.2,222.7 245.5,222.3 254.7,222.1 264.0,221.6 273.2,221.5 282.4,221.5 291.7,221.5 300.9,221.2 310.1,220.8 319.4,220.6 328.6,220.6 337.8,217.0 347.1,216.2 356.3,204.3 365.6,198.9 374.8,197.6 384.0,197.3 393.3,197.1 402.5,196.9 411.7,196.0 421.0,194.6 430.2,194.0 439.4,193.2 448.7,192.5 457.9,192.1 467.1,191.2 476.4,190.4 485.6,189.7 494.9,189.3 504.1,189.0 513.3,188.3 522.6,188.2 531.8,187.9 541.0,187.8 550.3,187.7 559.5,187.6 568.7,186.8 578.0,186.6 587.2,186.5 596.4,186.4 605.7,186.3 614.9,186.3 624.2,186.2 633.4,185.8 642.6,185.8 651.9,185.7 661.1,179.9 670.3,177.9 679.6,176.2 688.8,175.1 698.0,174.4 707.3,173.7 716.5,169.2 725.8,167.9 735.0,161.9 744.2,157.8 753.5,148.6 762.7,146.1 771.9,144.9 781.2,144.6 790.4,144.2 799.6,143.0 808.9,141.2 818.1,126.0 827.3,122.6 836.6,114.7 845.8,112.9 855.1,112.5 864.3,111.8 873.5,111.3 882.8,106.8 892.0,106.2 892.0,296.0" fill="#dbeafe" opacity="0.85" />
  <polyline points="70.0,226.0 79.2,225.5 88.5,225.3 97.7,225.3 106.9,225.1 116.2,225.1 125.4,224.9 134.7,224.9 143.9,224.8 153.1,224.8 162.4,224.2 171.6,224.1 180.8,223.9 190.1,223.5 199.3,223.2 208.5,223.1 217.8,223.1 227.0,222.7 236.2,222.7 245.5,222.3 254.7,222.1 264.0,221.6 273.2,221.5 282.4,221.5 291.7,221.5 300.9,221.2 310.1,220.8 319.4,220.6 328.6,220.6 337.8,217.0 347.1,216.2 356.3,204.3 365.6,198.9 374.8,197.6 384.0,197.3 393.3,197.1 402.5,196.9 411.7,196.0 421.0,194.6 430.2,194.0 439.4,193.2 448.7,192.5 457.9,192.1 467.1,191.2 476.4,190.4 485.6,189.7 494.9,189.3 504.1,189.0 513.3,188.3 522.6,188.2 531.8,187.9 541.0,187.8 550.3,187.7 559.5,187.6 568.7,186.8 578.0,186.6 587.2,186.5 596.4,186.4 605.7,186.3 614.9,186.3 624.2,186.2 633.4,185.8 642.6,185.8 651.9,185.7 661.1,179.9 670.3,177.9 679.6,176.2 688.8,175.1 698.0,174.4 707.3,173.7 716.5,169.2 725.8,167.9 735.0,161.9 744.2,157.8 753.5,148.6 762.7,146.1 771.9,144.9 781.2,144.6 790.4,144.2 799.6,143.0 808.9,141.2 818.1,126.0 827.3,122.6 836.6,114.7 845.8,112.9 855.1,112.5 864.3,111.8 873.5,111.3 882.8,106.8 892.0,106.2" fill="none" stroke="#2563eb" stroke-width="3" stroke-linecap="round" stroke-linejoin="round" />
<text x="70.0" y="334" text-anchor="middle" font-size="12" fill="#6b7280">Mar 26</text>
<text x="125.4" y="334" text-anchor="middle" font-size="12" fill="#6b7280">Apr 01</text>
<text x="402.5" y="334" text-anchor="middle" font-size="12" fill="#6b7280">May 01</text>
<text x="688.8" y="334" text-anchor="middle" font-size="12" fill="#6b7280">Jun 01</text>
  <text x="70" y="350" font-size="11" fill="#9ca3af">Source: pepy.tech API</text>
  <text x="892" y="350" text-anchor="end" font-size="11" fill="#9ca3af">Generated 2026-06-24 20:07 UTC</text>
</svg>
