<svg xmlns="http://www.w3.org/2000/svg" width="920" height="360" viewBox="0 0 920 360" role="img" aria-labelledby="title desc">
  <title id="title">docpull PyPI download history</title>
  <desc id="desc">Daily PyPI downloads from Pepy for docpull between Mar 14, 2026 and Jun 11, 2026.</desc>
  <rect width="920" height="360" rx="16" fill="#ffffff" />
  <text x="70" y="34" font-size="22" font-weight="700" fill="#111827">docpull PyPI downloads</text>
  <text x="70" y="56" font-size="13" fill="#6b7280">Daily downloads, last 90 days · 6,275 in window · 11,351 all time</text>
  <text x="892" y="34" text-anchor="end" font-size="20" font-weight="700" fill="#2563eb">26</text>
  <text x="892" y="55" text-anchor="end" font-size="12" fill="#6b7280">latest day</text>
<line x1="70" y1="296.0" x2="892" y2="296.0" stroke="#e5e7eb" stroke-width="1" />
<line x1="70" y1="240.0" x2="892" y2="240.0" stroke="#e5e7eb" stroke-width="1" />
<line x1="70" y1="184.0" x2="892" y2="184.0" stroke="#e5e7eb" stroke-width="1" />
<line x1="70" y1="128.0" x2="892" y2="128.0" stroke="#e5e7eb" stroke-width="1" />
<line x1="70" y1="72.0" x2="892" y2="72.0" stroke="#e5e7eb" stroke-width="1" />
<text x="56" y="300.0" text-anchor="end" font-size="12" fill="#6b7280">0</text>
<text x="56" y="244.0" text-anchor="end" font-size="12" fill="#6b7280">265</text>
<text x="56" y="188.0" text-anchor="end" font-size="12" fill="#6b7280">530</text>
<text x="56" y="132.0" text-anchor="end" font-size="12" fill="#6b7280">795</text>
<text x="56" y="76.0" text-anchor="end" font-size="12" fill="#6b7280">1.1k</text>
  <line x1="70" y1="296" x2="892" y2="296" stroke="#d1d5db" stroke-width="1.5" />
  <polygon points="70.0,296.0 70.0,291.6 79.2,287.5 88.5,296.0 97.7,294.3 106.9,293.0 116.2,295.4 125.4,295.6 134.7,292.2 143.9,289.9 153.1,292.2 162.4,296.0 171.6,292.0 180.8,295.6 190.1,288.6 199.3,293.5 208.5,295.4 217.8,292.2 227.0,296.0 236.2,294.1 245.5,295.8 254.7,294.7 264.0,295.6 273.2,286.5 282.4,293.9 291.7,293.9 300.9,289.2 310.1,290.7 319.4,295.2 328.6,295.2 337.8,290.1 347.1,296.0 356.3,290.1 365.6,291.8 374.8,288.4 384.0,294.5 393.3,296.0 402.5,296.0 411.7,291.1 421.0,289.7 430.2,293.7 439.4,295.4 448.7,239.8 457.9,283.1 467.1,107.1 476.4,210.0 485.6,275.9 494.9,291.4 504.1,292.4 513.3,292.6 522.6,281.8 531.8,274.0 541.0,286.1 550.3,283.1 559.5,285.4 568.7,290.3 578.0,281.2 587.2,284.2 596.4,283.5 605.7,289.7 614.9,292.4 624.2,285.0 633.4,293.3 642.6,291.6 651.9,295.4 661.1,293.7 670.3,294.1 679.6,283.5 688.8,292.6 698.0,295.2 707.3,294.7 716.5,293.9 725.8,295.2 735.0,294.9 744.2,290.3 753.5,295.4 762.7,294.9 771.9,203.7 781.2,265.1 790.4,267.9 799.6,278.7 808.9,284.8 818.1,285.9 827.3,223.7 836.6,276.3 845.8,200.9 855.1,230.7 864.3,151.0 873.5,255.0 882.8,277.8 892.0,290.5 892.0,296.0" fill="#dbeafe" opacity="0.85" />
  <polyline points="70.0,291.6 79.2,287.5 88.5,296.0 97.7,294.3 106.9,293.0 116.2,295.4 125.4,295.6 134.7,292.2 143.9,289.9 153.1,292.2 162.4,296.0 171.6,292.0 180.8,295.6 190.1,288.6 199.3,293.5 208.5,295.4 217.8,292.2 227.0,296.0 236.2,294.1 245.5,295.8 254.7,294.7 264.0,295.6 273.2,286.5 282.4,293.9 291.7,293.9 300.9,289.2 310.1,290.7 319.4,295.2 328.6,295.2 337.8,290.1 347.1,296.0 356.3,290.1 365.6,291.8 374.8,288.4 384.0,294.5 393.3,296.0 402.5,296.0 411.7,291.1 421.0,289.7 430.2,293.7 439.4,295.4 448.7,239.8 457.9,283.1 467.1,107.1 476.4,210.0 485.6,275.9 494.9,291.4 504.1,292.4 513.3,292.6 522.6,281.8 531.8,274.0 541.0,286.1 550.3,283.1 559.5,285.4 568.7,290.3 578.0,281.2 587.2,284.2 596.4,283.5 605.7,289.7 614.9,292.4 624.2,285.0 633.4,293.3 642.6,291.6 651.9,295.4 661.1,293.7 670.3,294.1 679.6,283.5 688.8,292.6 698.0,295.2 707.3,294.7 716.5,293.9 725.8,295.2 735.0,294.9 744.2,290.3 753.5,295.4 762.7,294.9 771.9,203.7 781.2,265.1 790.4,267.9 799.6,278.7 808.9,284.8 818.1,285.9 827.3,223.7 836.6,276.3 845.8,200.9 855.1,230.7 864.3,151.0 873.5,255.0 882.8,277.8 892.0,290.5" fill="none" stroke="#2563eb" stroke-width="3" stroke-linecap="round" stroke-linejoin="round" />
<text x="70.0" y="334" text-anchor="middle" font-size="12" fill="#6b7280">Mar 14</text>
<text x="236.2" y="334" text-anchor="middle" font-size="12" fill="#6b7280">Apr 01</text>
<text x="513.3" y="334" text-anchor="middle" font-size="12" fill="#6b7280">May 01</text>
<text x="799.6" y="334" text-anchor="middle" font-size="12" fill="#6b7280">Jun 01</text>
  <text x="70" y="350" font-size="11" fill="#9ca3af">Source: pepy.tech API</text>
  <text x="892" y="350" text-anchor="end" font-size="11" fill="#9ca3af">Generated 2026-06-12 18:17 UTC</text>
</svg>
