<svg xmlns="http://www.w3.org/2000/svg" width="920" height="360" viewBox="0 0 920 360" role="img" aria-labelledby="title desc">
  <title id="title">docpull cumulative PyPI download history</title>
  <desc id="desc">Cumulative PyPI downloads from Pepy for docpull between Mar 14, 2026 and Jun 11, 2026.</desc>
  <rect width="920" height="360" rx="16" fill="#ffffff" />
  <text x="70" y="34" font-size="22" font-weight="700" fill="#111827">docpull cumulative PyPI downloads</text>
  <text x="70" y="56" font-size="13" fill="#6b7280">Cumulative downloads, last 90 days · +6,275 in window · 11,351 all time</text>
  <text x="892" y="34" text-anchor="end" font-size="20" font-weight="700" fill="#2563eb">11.4k</text>
  <text x="892" y="55" text-anchor="end" font-size="12" fill="#6b7280">all time</text>
<line x1="70" y1="296.0" x2="892" y2="296.0" stroke="#e5e7eb" stroke-width="1" />
<line x1="70" y1="240.0" x2="892" y2="240.0" stroke="#e5e7eb" stroke-width="1" />
<line x1="70" y1="184.0" x2="892" y2="184.0" stroke="#e5e7eb" stroke-width="1" />
<line x1="70" y1="128.0" x2="892" y2="128.0" stroke="#e5e7eb" stroke-width="1" />
<line x1="70" y1="72.0" x2="892" y2="72.0" stroke="#e5e7eb" stroke-width="1" />
<text x="56" y="300.0" text-anchor="end" font-size="12" fill="#6b7280">0</text>
<text x="56" y="244.0" text-anchor="end" font-size="12" fill="#6b7280">3.4k</text>
<text x="56" y="188.0" text-anchor="end" font-size="12" fill="#6b7280">6.7k</text>
<text x="56" y="132.0" text-anchor="end" font-size="12" fill="#6b7280">10.1k</text>
<text x="56" y="76.0" text-anchor="end" font-size="12" fill="#6b7280">13.4k</text>
  <line x1="70" y1="296" x2="892" y2="296" stroke="#d1d5db" stroke-width="1.5" />
  <polygon points="70.0,296.0 70.0,210.8 79.2,210.1 88.5,210.1 97.7,210.0 106.9,209.8 116.2,209.7 125.4,209.7 134.7,209.4 143.9,208.9 153.1,208.6 162.4,208.6 171.6,208.3 180.8,208.2 190.1,207.7 199.3,207.5 208.5,207.4 217.8,207.1 227.0,207.1 236.2,207.0 245.5,206.9 254.7,206.8 264.0,206.8 273.2,206.0 282.4,205.9 291.7,205.7 300.9,205.2 310.1,204.8 319.4,204.7 328.6,204.6 337.8,204.2 347.1,204.2 356.3,203.7 365.6,203.4 374.8,202.8 384.0,202.6 393.3,202.6 402.5,202.6 411.7,202.3 421.0,201.8 430.2,201.6 439.4,201.5 448.7,197.1 457.9,196.1 467.1,181.1 476.4,174.3 485.6,172.7 494.9,172.3 504.1,172.1 513.3,171.8 522.6,170.7 531.8,168.9 541.0,168.2 550.3,167.1 559.5,166.3 568.7,165.8 578.0,164.7 587.2,163.7 596.4,162.8 605.7,162.3 614.9,162.0 624.2,161.1 633.4,160.9 642.6,160.5 651.9,160.5 661.1,160.3 670.3,160.1 679.6,159.2 688.8,158.9 698.0,158.8 707.3,158.7 716.5,158.6 725.8,158.5 735.0,158.4 744.2,158.0 753.5,157.9 762.7,157.8 771.9,150.5 781.2,148.1 790.4,145.9 799.6,144.5 808.9,143.6 818.1,142.8 827.3,137.1 836.6,135.5 845.8,128.0 855.1,122.8 864.3,111.4 873.5,108.1 882.8,106.7 892.0,106.3 892.0,296.0" fill="#dbeafe" opacity="0.85" />
  <polyline points="70.0,210.8 79.2,210.1 88.5,210.1 97.7,210.0 106.9,209.8 116.2,209.7 125.4,209.7 134.7,209.4 143.9,208.9 153.1,208.6 162.4,208.6 171.6,208.3 180.8,208.2 190.1,207.7 199.3,207.5 208.5,207.4 217.8,207.1 227.0,207.1 236.2,207.0 245.5,206.9 254.7,206.8 264.0,206.8 273.2,206.0 282.4,205.9 291.7,205.7 300.9,205.2 310.1,204.8 319.4,204.7 328.6,204.6 337.8,204.2 347.1,204.2 356.3,203.7 365.6,203.4 374.8,202.8 384.0,202.6 393.3,202.6 402.5,202.6 411.7,202.3 421.0,201.8 430.2,201.6 439.4,201.5 448.7,197.1 457.9,196.1 467.1,181.1 476.4,174.3 485.6,172.7 494.9,172.3 504.1,172.1 513.3,171.8 522.6,170.7 531.8,168.9 541.0,168.2 550.3,167.1 559.5,166.3 568.7,165.8 578.0,164.7 587.2,163.7 596.4,162.8 605.7,162.3 614.9,162.0 624.2,161.1 633.4,160.9 642.6,160.5 651.9,160.5 661.1,160.3 670.3,160.1 679.6,159.2 688.8,158.9 698.0,158.8 707.3,158.7 716.5,158.6 725.8,158.5 735.0,158.4 744.2,158.0 753.5,157.9 762.7,157.8 771.9,150.5 781.2,148.1 790.4,145.9 799.6,144.5 808.9,143.6 818.1,142.8 827.3,137.1 836.6,135.5 845.8,128.0 855.1,122.8 864.3,111.4 873.5,108.1 882.8,106.7 892.0,106.3" fill="none" stroke="#2563eb" stroke-width="3" stroke-linecap="round" stroke-linejoin="round" />
<text x="70.0" y="334" text-anchor="middle" font-size="12" fill="#6b7280">Mar 14</text>
<text x="236.2" y="334" text-anchor="middle" font-size="12" fill="#6b7280">Apr 01</text>
<text x="513.3" y="334" text-anchor="middle" font-size="12" fill="#6b7280">May 01</text>
<text x="799.6" y="334" text-anchor="middle" font-size="12" fill="#6b7280">Jun 01</text>
  <text x="70" y="350" font-size="11" fill="#9ca3af">Source: pepy.tech API</text>
  <text x="892" y="350" text-anchor="end" font-size="11" fill="#9ca3af">Generated 2026-06-12 18:24 UTC</text>
</svg>
